<svg 
    xmlns="http://www.w3.org/2000/svg" 
    version="1.0" 
    width="128.000000pt" 
    height="128.000000pt" 
    viewBox="0 0 128.000000 128.000000" 
    preserveAspectRatio="xMidYMid meet"
    >
        <g transform="translate(0.000000,128.000000) scale(0.100000,-0.100000)" fill="#ffffff" stroke="none">
            <path d="M114 1241 c-40 -25 -59 -76 -44 -117 6 -16 65 -131 131 -256 l120 -228 -124 -237 c-69 -131 -128 -248 -131 -260 -16 -52 45 -123 106 -123 30 0 987 522 1018 555 33 36 33 94 0 130 -32 35 -989 555 -1020 555 -14 0 -39 -9 -56 -19z m557 -285 c517 -282 529 -290 499 -342 -11 -19 -148 -99 -499 -290 -266 -145 -494 -264 -507 -264 -29 0 -67 47 -60 75 3 11 60 125 128 252 l122 233 225 2 c193 3 226 5 226 18 0 13 -33 15 -226 18 l-225 2 -122 233 c-68 127 -125 241 -128 252 -7 28 31 75 60 75 13 0 241 -119 507 -264z"/>
        </g>
</svg>